<svg height="511pt" viewBox="-25 0 511 511.934" width="511pt" xmlns="http://www.w3.org/2000/svg"><path d="M362.621 183.8l-15.36 18.095-30.038 35.41-.082.086-121.516-.254-61.953-.172L99.113 183.8a112.59 112.59 0 0121.93-26.024 161.68 161.68 0 0192.16-37.547c1.621-.171 3.328-.343 5.035-.43 4.18-.253 8.364-.425 12.63-.425a185.603 185.603 0 0144.202 5.293 164.738 164.738 0 0140.703 15.7 123.592 123.592 0 0146.848 43.433zm0 0" fill="#707070"/><path d="M367.398 237.39l-50.175-.085-121.598-.168-61.953-.172L99.113 183.8a112.59 112.59 0 0121.93-26.024 161.68 161.68 0 0192.16-37.547c1.621-.171 3.328-.343 5.035-.43a183.44 183.44 0 0131.23 4.868 164.68 164.68 0 0140.704 15.7 123.574 123.574 0 0146.851 43.433l10.239 18.094zm0 0" fill="#9e9e9e"/><path d="M427.133 375.375a103.766 103.766 0 01-12.543 50.688l-82.004 62.125a319.214 319.214 0 01-101.719 15.187c-4.351 0-8.617-.086-12.887-.254a327.206 327.206 0 01-70.742-9.558c-4.52-1.196-9.043-2.477-13.308-3.84-1.621-.512-3.246-1.024-4.782-1.536l-82.003-62.125a97.262 97.262 0 01-9.727-25.597 108.481 108.481 0 01-2.816-25.09c0-3.328.168-6.742.425-10.07a162.218 162.218 0 0125.258-72.278c-13.398-40.957-25.43-104.105-8.875-119.039a12.18 12.18 0 018.79-3.414c19.714 0 53.76 20.48 78.933 37.633 3.328 2.305 6.57 4.523 9.558 6.656a191.44 191.44 0 0169.29-18.176c4.269-.34 8.535-.511 12.886-.511 3.5 0 6.996.086 10.496.34a190.227 190.227 0 0155.895 11.691c5.46 2.047 10.75 4.266 15.957 6.742 7.848-5.547 17.152-11.945 26.879-18.09a235.764 235.764 0 0144.886-22.957 56.165 56.165 0 0116.81-3.328c28.757 0 15.105 76.117-.173 122.797a157.092 157.092 0 0125.516 82.004zm0 0" fill="#cfd8dc"/><path d="M401.535 375.375a103.77 103.77 0 01-12.547 50.688l-82.004 62.125a310.257 310.257 0 01-89.004 14.933 327.206 327.206 0 01-70.742-9.559c-4.52-1.195-9.043-2.476-13.308-3.84-1.621-.511-3.246-1.023-4.782-1.535l-82.003-62.125a97.262 97.262 0 01-9.727-25.597 108.481 108.481 0 01-2.816-25.09c0-3.328.168-6.742.425-10.07a162.218 162.218 0 0125.258-72.278c-13.398-40.957-25.43-104.105-8.875-119.039a328.142 328.142 0 0171.68 40.875 177.666 177.666 0 0116.043-6.656 189.39 189.39 0 0166.133-12.031c3.5 0 7 .086 10.496.34.742.015 1.484.074 2.218.171a193.242 193.242 0 0169.633 18.262c2.989-2.133 6.23-4.351 9.645-6.742 5.46 2.047 10.75 4.266 15.957 6.742 7.848-5.547 17.152-11.945 26.879-18.09a235.764 235.764 0 0144.886-22.957c16.555 15.106 4.438 78.594-8.96 119.47a157.163 157.163 0 0125.515 82.003zm0 0" fill="#f5f5f5"/><path d="M131.71 223.91a211.313 211.313 0 00-59.05 51.54c-12.289-42.665-14.508-77.907-10.41-87.638 6.996.77 26.281 6.231 69.46 36.098zm0 0" fill="#ef314c"/><g fill="#37474f"><path d="M147.156 450.129a65.385 65.385 0 01-13.226 39.594c-1.621-.512-3.246-1.024-4.782-1.536l-82.003-62.125a97.262 97.262 0 01-9.727-25.597 65.007 65.007 0 0143.52-16.555c36.554.035 66.183 29.66 66.218 66.219zm0 0M213.8 127.91c.009 22.23-14.335 41.922-35.495 48.735-21.16 6.812-44.297-.813-57.262-18.868a161.68 161.68 0 0192.16-37.547c.418 2.536.617 5.106.598 7.68zm0 0M316.2 144.977c.019 12.015-8.321 22.43-20.055 25.03-11.73 2.606-23.696-3.3-28.758-14.198-5.067-10.899-1.871-23.852 7.683-31.141a164.738 164.738 0 0140.703 15.7c.27 1.523.41 3.062.426 4.609zm0 0"/></g><path d="M252.797 120.656c.484-13.41-.895-26.82-4.094-39.851a34.33 34.33 0 0112.629-34.39c14.59-9.813 34.305 1.538 44.8 9.218 7.61 5.558 18.29 3.898 23.848-3.715 5.563-7.61 3.899-18.29-3.71-23.848C283.602-3.164 253.395 10.66 242.3 18c-22.421 16.023-32.968 43.988-26.706 70.828a112.028 112.028 0 013.156 30.973zm0 0M137 469.242c0-23.562-26.742-51.199-59.734-51.199-32.989 0-59.73 27.637-59.73 51.2s26.741 34.132 59.73 34.132c32.992 0 59.734-10.57 59.734-34.133zm0 0" fill="#9e9e9e"/><path d="M444.2 469.242c0 23.551-26.708 34.133-59.731 34.133-4.278.023-8.547-.176-12.801-.598-26.883-2.472-46.934-13.14-46.934-33.535 0-20.394 20.051-43.86 46.934-49.836a62.632 62.632 0 0112.8-1.363c33.024 0 59.731 27.648 59.731 51.2zm0 0" fill="#707070"/><path d="M418.602 469.242c0 20.395-20.055 31.063-46.934 33.535-26.883-2.472-46.934-13.14-46.934-33.535 0-20.394 20.051-43.86 46.934-49.836 26.879 5.977 46.934 29.442 46.934 49.836zm0 0" fill="#9e9e9e"/><path d="M253.898 374.691l-12.8 13.657c-5.73 5.46-14.739 5.46-20.473 0l-12.8-13.657a8.516 8.516 0 01-2.274-8.246 11.978 11.978 0 0111.148-8.078c.453-.047.91-.066 1.363-.058h25.606c.453-.008.91.011 1.363.058a12.06 12.06 0 0111.149 8.078 8.52 8.52 0 01-2.282 8.246zm0 0" fill="#ef314c"/><path d="M350.332 230.309c0 32.992-26.742 59.734-59.73 59.734-32.993 0-59.735-26.742-59.735-59.734a58.976 58.976 0 0110.496-33.793 191.794 191.794 0 0171.852 18.433c7.847-5.547 17.152-11.945 26.879-18.09a58.938 58.938 0 0110.238 33.45zm0 0" fill="#37474f"/><path d="M389.246 275.707a210.979 210.979 0 00-59.137-51.71 612.186 612.186 0 0119.114-12.716c30.039-18.691 44.46-22.785 50.52-23.469 4.01 9.731 1.874 45.141-10.497 87.895zm0 0" fill="#ef314c"/><path d="M230.867 511.91a329.904 329.904 0 01-104.469-15.644 8.532 8.532 0 01-2.87-14.5 8.529 8.529 0 018.37-1.657 312.688 312.688 0 0098.97 14.735 312.648 312.648 0 0098.964-14.735 8.538 8.538 0 018.375 1.657 8.55 8.55 0 012.75 8.082 8.537 8.537 0 01-5.625 6.418 329.863 329.863 0 01-104.465 15.644zm0 0M414.582 434.598a8.534 8.534 0 01-7.473-12.641 95.564 95.564 0 0011.493-46.582 147.858 147.858 0 00-24.22-77.48 8.52 8.52 0 01-.874-7.18c15.71-48.02 21.207-97.145 12.25-109.5a4.337 4.337 0 00-3.969-2.106c-14.926 0-45.406 15.598-83.625 42.797a8.516 8.516 0 01-8.61.754 182.223 182.223 0 00-157.234-.078 8.5 8.5 0 01-8.566-.754c-52.492-37.172-74.887-42.719-83.555-42.719a4.376 4.376 0 00-4.008 2.125c-8.914 12.297-3.441 61.254 12.2 109.149a8.518 8.518 0 01-.875 7.18 148.286 148.286 0 00-24.383 77.812 95.549 95.549 0 0011.492 46.578c2.27 4.137.758 9.324-3.375 11.594s-9.32.758-11.59-3.375a112.487 112.487 0 01-13.594-54.797 163.726 163.726 0 0124.91-83.488c-5.601-18.196-27.484-94.64-8.601-120.672a21.292 21.292 0 0117.824-9.172c18.41 0 48.477 14.469 89.403 43.023a198.966 198.966 0 01162.707.079c40.8-28.602 70.89-43.102 89.48-43.102a21.233 21.233 0 0117.785 9.156c18.957 26.149-3.035 102.813-8.652 121.035a163.288 163.288 0 0124.746 83.141 112.487 112.487 0 01-13.594 54.797 8.528 8.528 0 01-7.492 4.426zm0 0"/><path d="M99.102 192.336a8.534 8.534 0 01-7.301-12.941c25.125-41.645 79.707-68.551 139.066-68.551 59.266 0 113.852 26.902 139.059 68.535a8.537 8.537 0 01-2.88 11.723 8.537 8.537 0 01-11.722-2.88c-22.183-36.636-71.031-60.312-124.457-60.312-53.504 0-102.36 23.668-124.449 60.3a8.536 8.536 0 01-7.316 4.126zm0 0"/><path d="M252.809 129.188l-.332-.004a8.534 8.534 0 01-8.204-8.852 135.88 135.88 0 00-3.863-37.5 42.877 42.877 0 0116.192-43.512c13.992-9.41 33.375-6.074 54.566 9.422a8.523 8.523 0 008.484.914 8.533 8.533 0 001.586-14.695c-36.82-26.953-62.304-17.73-74.23-9.844-19.48 13.98-28.613 38.324-23.133 61.668a119.78 119.78 0 013.398 33.363 8.678 8.678 0 01-8.867 8.18 8.53 8.53 0 01-8.18-8.875 102.93 102.93 0 00-2.925-28.601c-7.035-30.309 4.902-61.868 30.23-79.93 12.633-8.36 46.946-24.016 93.778 10.258a25.603 25.603 0 0110.515 23.465 25.599 25.599 0 01-40.723 17.871c-6.976-5.098-24.359-16.196-35-9.016a25.925 25.925 0 00-9.109 25.293 153.42 153.42 0 014.332 42.187 8.532 8.532 0 01-8.515 8.207zm0 0M77.266 511.91C35.16 511.91 9 495.56 9 469.242c0-27.625 29.816-59.734 68.266-59.734 38.453 0 68.27 32.11 68.27 59.734 0 26.317-26.161 42.668-68.27 42.668zm0-85.336c-27.575 0-51.2 23.469-51.2 42.668 0 18.875 26.454 25.602 51.2 25.602s51.203-6.727 51.203-25.602c0-19.199-23.63-42.668-51.203-42.668zm0 0M384.469 511.91c-42.11 0-68.27-16.351-68.27-42.668 0-27.625 29.817-59.734 68.27-59.734 38.449 0 68.265 32.11 68.265 59.734 0 26.317-26.16 42.668-68.265 42.668zm0-85.336c-27.578 0-51.203 23.465-51.203 42.668 0 18.875 26.453 25.602 51.203 25.602 24.746 0 51.199-6.727 51.199-25.602 0-19.199-23.625-42.668-51.2-42.668zm0 0"/><path d="M77.266 511.91c-14.13-.015-25.582-11.469-25.598-25.601v-17.067c0-4.71 3.82-8.531 8.531-8.531a8.533 8.533 0 018.535 8.531v17.067a8.533 8.533 0 1017.067 0v-17.067c0-4.71 3.82-8.531 8.531-8.531a8.533 8.533 0 018.535 8.531v17.067c-.015 14.132-11.469 25.586-25.601 25.601zm0 0M384.469 511.91c-14.133-.015-25.586-11.469-25.602-25.601v-17.067c0-4.71 3.82-8.531 8.531-8.531a8.533 8.533 0 018.536 8.531v17.067a8.534 8.534 0 1017.066 0v-17.067c0-4.71 3.82-8.531 8.535-8.531 4.711 0 8.531 3.82 8.531 8.531v17.067c-.015 14.132-11.468 25.586-25.597 25.601zm0 0M230.867 400.977a22.476 22.476 0 01-16.457-6.797l-12.793-13.653a17.111 17.111 0 01-3.469-18.695 21.259 21.259 0 0119.926-12.055h25.586c8.445-.3 16.27 4.43 19.922 12.051a17.103 17.103 0 01-3.473 18.7l-12.777 13.652a22.508 22.508 0 01-16.465 6.797zm-12.793-34.133c-2.906 0-4.18 1.414-4.281 1.816l13.074 13.852a6.838 6.838 0 008.008 0l12.773-13.653c.196-.597-1.082-2.015-3.988-2.015zm0 0"/><path d="M205.266 460.71c-18.844-.022-34.114-15.292-34.133-34.136v-8.531a8.534 8.534 0 1117.066 0v8.531c0 9.426 7.64 17.067 17.067 17.067s17.066-7.641 17.066-17.067v-34.133c0-4.71 3.82-8.53 8.535-8.53 4.711 0 8.531 3.82 8.531 8.53v34.133c-.02 18.844-15.289 34.113-34.132 34.137zm0 0"/><path d="M256.469 460.71c-18.844-.022-34.117-15.292-34.137-34.136v-34.133c0-4.71 3.82-8.53 8.535-8.53 4.711 0 8.531 3.82 8.531 8.53v34.133c0 9.426 7.645 17.067 17.07 17.067 9.423 0 17.067-7.641 17.067-17.067v-8.531a8.533 8.533 0 1117.067 0v8.531c-.02 18.844-15.293 34.113-34.133 34.137zm0 0M179.66 341.242c-4-.008-7.46-2.789-8.328-6.691a26.509 26.509 0 00-12.34-15.95c-8.676-4.581-20.758-3.878-35.949 2.06-4.39 1.714-9.344-.454-11.059-4.845-1.718-4.39.45-9.34 4.84-11.058 20.192-7.871 37.153-8.235 50.426-1.094a43.633 43.633 0 0120.758 27.266 8.534 8.534 0 01-1.711 7.152 8.52 8.52 0 01-6.637 3.16zm0 0M273.543 341.242a8.522 8.522 0 01-6.64-3.16 8.534 8.534 0 01-1.712-7.152 43.647 43.647 0 0120.758-27.266c13.285-7.148 30.242-6.781 50.426 1.094a8.54 8.54 0 014.844 11.058 8.543 8.543 0 01-11.063 4.844c-15.289-5.972-27.441-6.64-36.113-1.965a26.318 26.318 0 00-12.168 15.797 8.53 8.53 0 01-8.332 6.75zm0 0M102.86 358.309a8.466 8.466 0 01-5.094-1.696A159.476 159.476 0 009 332.711c-4.71 0-8.531-3.824-8.531-8.535S4.289 315.64 9 315.64c61.867 0 97.5 26.191 98.988 27.308a8.533 8.533 0 01-5.129 15.36zm0 0M9.008 400.977a8.528 8.528 0 01-8.172-6.059 8.528 8.528 0 013.43-9.574c27.433-18.293 79.336-18.5 81.535-18.5 4.71 0 8.531 3.82 8.531 8.531a8.533 8.533 0 01-8.531 8.535c-.485 0-48.942.215-72.067 15.633a8.513 8.513 0 01-4.726 1.434zm0 0M358.883 358.297a8.53 8.53 0 01-8.106-5.82 8.53 8.53 0 012.97-9.528c1.483-1.117 37.12-27.308 98.987-27.308 4.711 0 8.532 3.824 8.532 8.535 0 4.71-3.82 8.535-8.532 8.535a159.399 159.399 0 00-88.765 23.906 8.548 8.548 0 01-5.086 1.68zm0 0M452.727 400.977c-1.684 0-3.329-.5-4.727-1.434-23.125-15.418-71.582-15.633-72.066-15.633a8.534 8.534 0 110-17.066c2.199 0 54.101.207 81.535 18.5a8.528 8.528 0 013.43 9.574 8.528 8.528 0 01-8.172 6.059zm0 0"/></svg>